<?xml version="1.0" encoding="UTF-8"?>
<svg xmlns="http://www.w3.org/2000/svg" width="2200" height="1600" viewBox="0 0 2200 1600">
<defs>
  <filter id="softShadow" x="-20%" y="-20%" width="140%" height="140%">
    <feDropShadow dx="0" dy="6" stdDeviation="10" flood-color="#0f172a" flood-opacity="0.12" />
  </filter>
</defs>
<rect width="2200" height="1600" fill="#f8fafc" />
<rect x="24" y="24" width="2152" height="1552" rx="28" fill="none" stroke="#e2e8f0" stroke-width="2" />
<rect x="470" y="42" width="1260" height="180" rx="22" fill="#ffffff" stroke="#1e293b" stroke-width="3" filter="url(#softShadow)" />
<text x="1100" y="118" text-anchor="middle" font-family="Segoe UI, Arial, sans-serif" font-size="40" font-weight="700" fill="#111827"><tspan x="1100" dy="0">Resident Registration API Process Flow</tspan><tspan x="1100" dy="48">app/api/auth/register/route.ts</tspan></text>
<text x="1100" y="184" text-anchor="middle" font-family="Segoe UI, Arial, sans-serif" font-size="22" font-weight="500" fill="#475569"><tspan x="1100" dy="0">Validation, account creation, audit logging, email verification, and response handling</tspan></text>
<rect x="70" y="340" width="240" height="108" rx="18" fill="#ffffff" stroke="#334155" stroke-width="2.5" filter="url(#softShadow)" />
<rect x="70" y="340" width="240" height="18" rx="18" fill="#fde68a" />
<text x="190" y="380" text-anchor="middle" font-family="Segoe UI, Arial, sans-serif" font-size="24" font-weight="700" fill="#0f172a"><tspan x="190" dy="0">Phase 1</tspan><tspan x="190" dy="28">Receive</tspan><tspan x="190" dy="28">Request</tspan></text>
<line x1="190" y1="448" x2="190" y2="474" stroke="#94a3b8" stroke-width="3" stroke-linecap="round" />
<rect x="70" y="490" width="240" height="130" rx="16" fill="#ffffff" stroke="#cbd5e1" stroke-width="2" filter="url(#softShadow)" />
<rect x="70" y="490" width="8" height="130" rx="8" fill="#fde68a" />
<text x="94" y="526" text-anchor="start" font-family="Segoe UI, Arial, sans-serif" font-size="22" font-weight="600" fill="#1e293b"><tspan x="94" dy="0">1.1</tspan><tspan x="94" dy="26">Accept POST</tspan><tspan x="94" dy="26">request</tspan></text>
<rect x="70" y="638" width="240" height="130" rx="16" fill="#ffffff" stroke="#cbd5e1" stroke-width="2" filter="url(#softShadow)" />
<rect x="70" y="638" width="8" height="130" rx="8" fill="#fde68a" />
<text x="94" y="674" text-anchor="start" font-family="Segoe UI, Arial, sans-serif" font-size="22" font-weight="600" fill="#1e293b"><tspan x="94" dy="0">1.2</tspan><tspan x="94" dy="26">Read JSON</tspan><tspan x="94" dy="26">body</tspan></text>
<rect x="70" y="786" width="240" height="156" rx="16" fill="#ffffff" stroke="#cbd5e1" stroke-width="2" filter="url(#softShadow)" />
<rect x="70" y="786" width="8" height="156" rx="8" fill="#fde68a" />
<text x="94" y="822" text-anchor="start" font-family="Segoe UI, Arial, sans-serif" font-size="22" font-weight="600" fill="#1e293b"><tspan x="94" dy="0">1.3</tspan><tspan x="94" dy="26">Start resident</tspan><tspan x="94" dy="26">registration</tspan><tspan x="94" dy="26">flow</tspan></text>
<rect x="330" y="340" width="240" height="108" rx="18" fill="#ffffff" stroke="#334155" stroke-width="2.5" filter="url(#softShadow)" />
<rect x="330" y="340" width="240" height="18" rx="18" fill="#bfdbfe" />
<text x="450" y="380" text-anchor="middle" font-family="Segoe UI, Arial, sans-serif" font-size="24" font-weight="700" fill="#0f172a"><tspan x="450" dy="0">Phase 2</tspan><tspan x="450" dy="28">Validate</tspan><tspan x="450" dy="28">Input</tspan></text>
<line x1="450" y1="448" x2="450" y2="474" stroke="#94a3b8" stroke-width="3" stroke-linecap="round" />
<rect x="330" y="490" width="240" height="130" rx="16" fill="#ffffff" stroke="#cbd5e1" stroke-width="2" filter="url(#softShadow)" />
<rect x="330" y="490" width="8" height="130" rx="8" fill="#bfdbfe" />
<text x="354" y="526" text-anchor="start" font-family="Segoe UI, Arial, sans-serif" font-size="22" font-weight="600" fill="#1e293b"><tspan x="354" dy="0">2.1</tspan><tspan x="354" dy="26">Parse body with</tspan><tspan x="354" dy="26">registerSchema</tspan></text>
<rect x="330" y="638" width="240" height="156" rx="16" fill="#ffffff" stroke="#cbd5e1" stroke-width="2" filter="url(#softShadow)" />
<rect x="330" y="638" width="8" height="156" rx="8" fill="#bfdbfe" />
<text x="354" y="674" text-anchor="start" font-family="Segoe UI, Arial, sans-serif" font-size="22" font-weight="600" fill="#1e293b"><tspan x="354" dy="0">2.2</tspan><tspan x="354" dy="26">Check name,</tspan><tspan x="354" dy="26">email, and</tspan><tspan x="354" dy="26">password</tspan></text>
<rect x="330" y="812" width="240" height="156" rx="16" fill="#ffffff" stroke="#cbd5e1" stroke-width="2" filter="url(#softShadow)" />
<rect x="330" y="812" width="8" height="156" rx="8" fill="#bfdbfe" />
<text x="354" y="848" text-anchor="start" font-family="Segoe UI, Arial, sans-serif" font-size="22" font-weight="600" fill="#1e293b"><tspan x="354" dy="0">2.3</tspan><tspan x="354" dy="26">Validate</tspan><tspan x="354" dy="26">barangay</tspan><tspan x="354" dy="26">selection</tspan></text>
<rect x="590" y="340" width="240" height="108" rx="18" fill="#ffffff" stroke="#334155" stroke-width="2.5" filter="url(#softShadow)" />
<rect x="590" y="340" width="240" height="18" rx="18" fill="#fecaca" />
<text x="710" y="380" text-anchor="middle" font-family="Segoe UI, Arial, sans-serif" font-size="24" font-weight="700" fill="#0f172a"><tspan x="710" dy="0">Phase 3</tspan><tspan x="710" dy="28">Handle Invalid</tspan><tspan x="710" dy="28">Input</tspan></text>
<line x1="710" y1="448" x2="710" y2="474" stroke="#94a3b8" stroke-width="3" stroke-linecap="round" />
<rect x="590" y="490" width="240" height="130" rx="16" fill="#ffffff" stroke="#cbd5e1" stroke-width="2" filter="url(#softShadow)" />
<rect x="590" y="490" width="8" height="130" rx="8" fill="#fecaca" />
<text x="614" y="526" text-anchor="start" font-family="Segoe UI, Arial, sans-serif" font-size="22" font-weight="600" fill="#1e293b"><tspan x="614" dy="0">3.1</tspan><tspan x="614" dy="26">Catch</tspan><tspan x="614" dy="26">ZodError</tspan></text>
<rect x="590" y="638" width="240" height="156" rx="16" fill="#ffffff" stroke="#cbd5e1" stroke-width="2" filter="url(#softShadow)" />
<rect x="590" y="638" width="8" height="156" rx="8" fill="#fecaca" />
<text x="614" y="674" text-anchor="start" font-family="Segoe UI, Arial, sans-serif" font-size="22" font-weight="600" fill="#1e293b"><tspan x="614" dy="0">3.2</tspan><tspan x="614" dy="26">Return first</tspan><tspan x="614" dy="26">validation</tspan><tspan x="614" dy="26">message</tspan></text>
<rect x="590" y="812" width="240" height="130" rx="16" fill="#ffffff" stroke="#cbd5e1" stroke-width="2" filter="url(#softShadow)" />
<rect x="590" y="812" width="8" height="130" rx="8" fill="#fecaca" />
<text x="614" y="848" text-anchor="start" font-family="Segoe UI, Arial, sans-serif" font-size="22" font-weight="600" fill="#1e293b"><tspan x="614" dy="0">3.3</tspan><tspan x="614" dy="26">Send 400</tspan><tspan x="614" dy="26">Bad Request</tspan></text>
<rect x="850" y="340" width="240" height="108" rx="18" fill="#ffffff" stroke="#334155" stroke-width="2.5" filter="url(#softShadow)" />
<rect x="850" y="340" width="240" height="18" rx="18" fill="#ddd6fe" />
<text x="970" y="380" text-anchor="middle" font-family="Segoe UI, Arial, sans-serif" font-size="24" font-weight="700" fill="#0f172a"><tspan x="970" dy="0">Phase 4</tspan><tspan x="970" dy="28">Create</tspan><tspan x="970" dy="28">Account</tspan></text>
<line x1="970" y1="448" x2="970" y2="474" stroke="#94a3b8" stroke-width="3" stroke-linecap="round" />
<rect x="850" y="490" width="240" height="156" rx="16" fill="#ffffff" stroke="#cbd5e1" stroke-width="2" filter="url(#softShadow)" />
<rect x="850" y="490" width="8" height="156" rx="8" fill="#ddd6fe" />
<text x="874" y="526" text-anchor="start" font-family="Segoe UI, Arial, sans-serif" font-size="22" font-weight="600" fill="#1e293b"><tspan x="874" dy="0">4.1</tspan><tspan x="874" dy="26">Create resident</tspan><tspan x="874" dy="26">self-service</tspan><tspan x="874" dy="26">account</tspan></text>
<rect x="850" y="664" width="240" height="130" rx="16" fill="#ffffff" stroke="#cbd5e1" stroke-width="2" filter="url(#softShadow)" />
<rect x="850" y="664" width="8" height="130" rx="8" fill="#ddd6fe" />
<text x="874" y="700" text-anchor="start" font-family="Segoe UI, Arial, sans-serif" font-size="22" font-weight="600" fill="#1e293b"><tspan x="874" dy="0">4.2</tspan><tspan x="874" dy="26">Store returned</tspan><tspan x="874" dy="26">user record</tspan></text>
<rect x="850" y="812" width="240" height="156" rx="16" fill="#ffffff" stroke="#cbd5e1" stroke-width="2" filter="url(#softShadow)" />
<rect x="850" y="812" width="8" height="156" rx="8" fill="#ddd6fe" />
<text x="874" y="848" text-anchor="start" font-family="Segoe UI, Arial, sans-serif" font-size="22" font-weight="600" fill="#1e293b"><tspan x="874" dy="0">4.3</tspan><tspan x="874" dy="26">If creation</tspan><tspan x="874" dy="26">fails, return</tspan><tspan x="874" dy="26">400 error</tspan></text>
<rect x="1110" y="340" width="240" height="108" rx="18" fill="#ffffff" stroke="#334155" stroke-width="2.5" filter="url(#softShadow)" />
<rect x="1110" y="340" width="240" height="18" rx="18" fill="#fbcfe8" />
<text x="1230" y="380" text-anchor="middle" font-family="Segoe UI, Arial, sans-serif" font-size="24" font-weight="700" fill="#0f172a"><tspan x="1230" dy="0">Phase 5</tspan><tspan x="1230" dy="28">Write Audit</tspan><tspan x="1230" dy="28">Log</tspan></text>
<line x1="1230" y1="448" x2="1230" y2="474" stroke="#94a3b8" stroke-width="3" stroke-linecap="round" />
<rect x="1110" y="490" width="240" height="156" rx="16" fill="#ffffff" stroke="#cbd5e1" stroke-width="2" filter="url(#softShadow)" />
<rect x="1110" y="490" width="8" height="156" rx="8" fill="#fbcfe8" />
<text x="1134" y="526" text-anchor="start" font-family="Segoe UI, Arial, sans-serif" font-size="22" font-weight="600" fill="#1e293b"><tspan x="1134" dy="0">5.1</tspan><tspan x="1134" dy="26">Log CREATE</tspan><tspan x="1134" dy="26">action for</tspan><tspan x="1134" dy="26">new user</tspan></text>
<rect x="1110" y="664" width="240" height="156" rx="16" fill="#ffffff" stroke="#cbd5e1" stroke-width="2" filter="url(#softShadow)" />
<rect x="1110" y="664" width="8" height="156" rx="8" fill="#fbcfe8" />
<text x="1134" y="700" text-anchor="start" font-family="Segoe UI, Arial, sans-serif" font-size="22" font-weight="600" fill="#1e293b"><tspan x="1134" dy="0">5.2</tspan><tspan x="1134" dy="26">Mark source as</tspan><tspan x="1134" dy="26">resident_</tspan><tspan x="1134" dy="26">register</tspan></text>
<rect x="1110" y="838" width="240" height="156" rx="16" fill="#ffffff" stroke="#cbd5e1" stroke-width="2" filter="url(#softShadow)" />
<rect x="1110" y="838" width="8" height="156" rx="8" fill="#fbcfe8" />
<text x="1134" y="874" text-anchor="start" font-family="Segoe UI, Arial, sans-serif" font-size="22" font-weight="600" fill="#1e293b"><tspan x="1134" dy="0">5.3</tspan><tspan x="1134" dy="26">Continue if</tspan><tspan x="1134" dy="26">audit sync</tspan><tspan x="1134" dy="26">fails</tspan></text>
<rect x="1370" y="340" width="240" height="108" rx="18" fill="#ffffff" stroke="#334155" stroke-width="2.5" filter="url(#softShadow)" />
<rect x="1370" y="340" width="240" height="18" rx="18" fill="#a7f3d0" />
<text x="1490" y="380" text-anchor="middle" font-family="Segoe UI, Arial, sans-serif" font-size="24" font-weight="700" fill="#0f172a"><tspan x="1490" dy="0">Phase 6</tspan><tspan x="1490" dy="28">Prepare</tspan><tspan x="1490" dy="28">Verification</tspan></text>
<line x1="1490" y1="448" x2="1490" y2="474" stroke="#94a3b8" stroke-width="3" stroke-linecap="round" />
<rect x="1370" y="490" width="240" height="156" rx="16" fill="#ffffff" stroke="#cbd5e1" stroke-width="2" filter="url(#softShadow)" />
<rect x="1370" y="490" width="8" height="156" rx="8" fill="#a7f3d0" />
<text x="1394" y="526" text-anchor="start" font-family="Segoe UI, Arial, sans-serif" font-size="22" font-weight="600" fill="#1e293b"><tspan x="1394" dy="0">6.1</tspan><tspan x="1394" dy="26">Create email</tspan><tspan x="1394" dy="26">verification</tspan><tspan x="1394" dy="26">token</tspan></text>
<rect x="1370" y="664" width="240" height="130" rx="16" fill="#ffffff" stroke="#cbd5e1" stroke-width="2" filter="url(#softShadow)" />
<rect x="1370" y="664" width="8" height="130" rx="8" fill="#a7f3d0" />
<text x="1394" y="700" text-anchor="start" font-family="Segoe UI, Arial, sans-serif" font-size="22" font-weight="600" fill="#1e293b"><tspan x="1394" dy="0">6.2</tspan><tspan x="1394" dy="26">Resolve app</tspan><tspan x="1394" dy="26">base URL</tspan></text>
<rect x="1370" y="812" width="240" height="182" rx="16" fill="#ffffff" stroke="#cbd5e1" stroke-width="2" filter="url(#softShadow)" />
<rect x="1370" y="812" width="8" height="182" rx="8" fill="#a7f3d0" />
<text x="1394" y="848" text-anchor="start" font-family="Segoe UI, Arial, sans-serif" font-size="22" font-weight="600" fill="#1e293b"><tspan x="1394" dy="0">6.3</tspan><tspan x="1394" dy="26">Build verify</tspan><tspan x="1394" dy="26">link with</tspan><tspan x="1394" dy="26">token and</tspan><tspan x="1394" dy="26">email</tspan></text>
<rect x="1630" y="340" width="240" height="108" rx="18" fill="#ffffff" stroke="#334155" stroke-width="2.5" filter="url(#softShadow)" />
<rect x="1630" y="340" width="240" height="18" rx="18" fill="#bae6fd" />
<text x="1750" y="380" text-anchor="middle" font-family="Segoe UI, Arial, sans-serif" font-size="24" font-weight="700" fill="#0f172a"><tspan x="1750" dy="0">Phase 7</tspan><tspan x="1750" dy="28">Send</tspan><tspan x="1750" dy="28">Email</tspan></text>
<line x1="1750" y1="448" x2="1750" y2="474" stroke="#94a3b8" stroke-width="3" stroke-linecap="round" />
<rect x="1630" y="490" width="240" height="156" rx="16" fill="#ffffff" stroke="#cbd5e1" stroke-width="2" filter="url(#softShadow)" />
<rect x="1630" y="490" width="8" height="156" rx="8" fill="#bae6fd" />
<text x="1654" y="526" text-anchor="start" font-family="Segoe UI, Arial, sans-serif" font-size="22" font-weight="600" fill="#1e293b"><tspan x="1654" dy="0">7.1</tspan><tspan x="1654" dy="26">Send resident</tspan><tspan x="1654" dy="26">verification</tspan><tspan x="1654" dy="26">email</tspan></text>
<rect x="1630" y="664" width="240" height="130" rx="16" fill="#ffffff" stroke="#cbd5e1" stroke-width="2" filter="url(#softShadow)" />
<rect x="1630" y="664" width="8" height="130" rx="8" fill="#bae6fd" />
<text x="1654" y="700" text-anchor="start" font-family="Segoe UI, Arial, sans-serif" font-size="22" font-weight="600" fill="#1e293b"><tspan x="1654" dy="0">7.2</tspan><tspan x="1654" dy="26">Set sent flag</tspan><tspan x="1654" dy="26">on success</tspan></text>
<rect x="1630" y="812" width="240" height="156" rx="16" fill="#ffffff" stroke="#cbd5e1" stroke-width="2" filter="url(#softShadow)" />
<rect x="1630" y="812" width="8" height="156" rx="8" fill="#bae6fd" />
<text x="1654" y="848" text-anchor="start" font-family="Segoe UI, Arial, sans-serif" font-size="22" font-weight="600" fill="#1e293b"><tspan x="1654" dy="0">7.3</tspan><tspan x="1654" dy="26">Capture error</tspan><tspan x="1654" dy="26">message on</tspan><tspan x="1654" dy="26">failure</tspan></text>
<rect x="1890" y="340" width="240" height="108" rx="18" fill="#ffffff" stroke="#334155" stroke-width="2.5" filter="url(#softShadow)" />
<rect x="1890" y="340" width="240" height="18" rx="18" fill="#d9f99d" />
<text x="2010" y="380" text-anchor="middle" font-family="Segoe UI, Arial, sans-serif" font-size="24" font-weight="700" fill="#0f172a"><tspan x="2010" dy="0">Phase 8</tspan><tspan x="2010" dy="28">Return</tspan><tspan x="2010" dy="28">Response</tspan></text>
<line x1="2010" y1="448" x2="2010" y2="474" stroke="#94a3b8" stroke-width="3" stroke-linecap="round" />
<rect x="1890" y="490" width="240" height="130" rx="16" fill="#ffffff" stroke="#cbd5e1" stroke-width="2" filter="url(#softShadow)" />
<rect x="1890" y="490" width="8" height="130" rx="8" fill="#d9f99d" />
<text x="1914" y="526" text-anchor="start" font-family="Segoe UI, Arial, sans-serif" font-size="22" font-weight="600" fill="#1e293b"><tspan x="1914" dy="0">8.1</tspan><tspan x="1914" dy="26">Return user and</tspan><tspan x="1914" dy="26">remoteUserId</tspan></text>
<rect x="1890" y="638" width="240" height="156" rx="16" fill="#ffffff" stroke="#cbd5e1" stroke-width="2" filter="url(#softShadow)" />
<rect x="1890" y="638" width="8" height="156" rx="8" fill="#d9f99d" />
<text x="1914" y="674" text-anchor="start" font-family="Segoe UI, Arial, sans-serif" font-size="22" font-weight="600" fill="#1e293b"><tspan x="1914" dy="0">8.2</tspan><tspan x="1914" dy="26">verification</tspan><tspan x="1914" dy="26">Required =</tspan><tspan x="1914" dy="26">true</tspan></text>
<rect x="1890" y="812" width="240" height="156" rx="16" fill="#ffffff" stroke="#cbd5e1" stroke-width="2" filter="url(#softShadow)" />
<rect x="1890" y="812" width="8" height="156" rx="8" fill="#d9f99d" />
<text x="1914" y="848" text-anchor="start" font-family="Segoe UI, Arial, sans-serif" font-size="22" font-weight="600" fill="#1e293b"><tspan x="1914" dy="0">8.3</tspan><tspan x="1914" dy="26">Include email</tspan><tspan x="1914" dy="26">status and</tspan><tspan x="1914" dy="26">error</tspan></text>
<rect x="1890" y="986" width="240" height="130" rx="16" fill="#ffffff" stroke="#cbd5e1" stroke-width="2" filter="url(#softShadow)" />
<rect x="1890" y="986" width="8" height="130" rx="8" fill="#d9f99d" />
<text x="1914" y="1022" text-anchor="start" font-family="Segoe UI, Arial, sans-serif" font-size="22" font-weight="600" fill="#1e293b"><tspan x="1914" dy="0">8.4</tspan><tspan x="1914" dy="26">Send 201</tspan><tspan x="1914" dy="26">Created</tspan></text>
<line x1="1100" y1="222" x2="1100" y2="308" stroke="#94a3b8" stroke-width="3" stroke-linecap="round" />
<line x1="190" y1="308" x2="2010" y2="308" stroke="#94a3b8" stroke-width="3" stroke-linecap="round" />
<line x1="190" y1="308" x2="190" y2="340" stroke="#94a3b8" stroke-width="3" stroke-linecap="round" />
<line x1="450" y1="308" x2="450" y2="340" stroke="#94a3b8" stroke-width="3" stroke-linecap="round" />
<line x1="710" y1="308" x2="710" y2="340" stroke="#94a3b8" stroke-width="3" stroke-linecap="round" />
<line x1="970" y1="308" x2="970" y2="340" stroke="#94a3b8" stroke-width="3" stroke-linecap="round" />
<line x1="1230" y1="308" x2="1230" y2="340" stroke="#94a3b8" stroke-width="3" stroke-linecap="round" />
<line x1="1490" y1="308" x2="1490" y2="340" stroke="#94a3b8" stroke-width="3" stroke-linecap="round" />
<line x1="1750" y1="308" x2="1750" y2="340" stroke="#94a3b8" stroke-width="3" stroke-linecap="round" />
<line x1="2010" y1="308" x2="2010" y2="340" stroke="#94a3b8" stroke-width="3" stroke-linecap="round" />
<text x="1100" y="1534" text-anchor="middle" font-family="Segoe UI, Arial, sans-serif" font-size="20" font-weight="500" fill="#64748b"><tspan x="1100" dy="0">Generated locally from the current registration route so the labels stay readable and presentation-ready.</tspan></text>
</svg>